<svg xmlns="http://www.w3.org/2000/svg" width="684.395" height="214.422" viewBox="0 0 684.395 214.422"><path d="M.625 211.53v-60.542h6.576v2.04h3.174v-2.04h22.448l.11 3.486 2.538-1.97 1.545.013-.164 57.23-2.03-.005-.036 4.055h-24.41v-.68h-4.99v-1.587z" fill="#b30000" stroke="maroon" stroke-width="1.25"/><path d="M37.734 129.853H16.642l-1.471 2.289-5.208-.038-.025-2.251H4.869v-21.42l-1.712.021-.048-3.113 1.76-.015V86.032h5.07v-2.125l4.185-.033 1.7 2.158h21.91zM15.451 83.044H9.223v-7.007h3.581zm12.456-20.085h-2.574V60h2.574zm16.652-27.2h-5.416V10.652h-.572V7.935h1.254v1.802h4.734zm-.652 41.262H39.83l.006-1.4-4.006.015.07-3.39 1.246.033-.008-1.181h6.769zm32.827 102.192h-20.14v-7.997h1.333v-17.03h17.919v17.03h.888zM41.999 68.021l-2.63-.035.015 2.188-10.615-.153v-7.77l6.164-2.42-.01 4.267h7.076zm-4.995-33.964h-5.016v1.133l-21.838.017v-1.15H4.82V12.951h3.971V11.28l3.698-.024-.04 1.695v7.42l14.443.151.042-7.383 10.07-.188zm52.762 137.011h-10.81v-3.11h10.81zm0-5.183H76.734v-6.96h13.032zm.504-44.724h-9.182v-16.437h9.182zm16.674 80.029h-5.33v-8.293h-2.963v8.145h-9.774v-8.145h-2.783v8.145H80.91V184.16h5.184v1.48h15.52v-1.036h5.33zm7.109-80.029h-8.145v-16.29h8.145zm0-43.093h-8.293v-16.29h8.293zm-3.673-27.131h-2.369v-3.554h2.37zm1.659 112.342h-9.182v-11.403h9.182zm1.037-24.287h-7.257v-14.365h7.257v2.37h1.036v10.218h-1.036zM91.899 95.039h-1.925v2.813s.638 2.517-5.1 2.4c-4.495-.092-4.223-2.37-4.223-2.37l1.03-.03v-2.813h-.89V79.045h2.598V77.56l3.474.047-.047 1.438h5.083zm-17.01 41.047H50.781v-15.081h21.137l.023-1.151 2.948.009z" fill="red" stroke="#b30000" stroke-width="1.25"/><path d="M70.89 120.068H50.439v-14.167h20.793l.079 9.064 1.851-.038-.016 2.036-1.155-.003-.073 1.966H70.89zm4.113-15.538H51.01V84.65l10.031.054.003 3.857 13.959.317z" fill="red" stroke="#b30000" stroke-width="1.25"/><path d="M69.29 86.364h-3.085v-5.827h3.085zm5.142 1.714h-4.456v-6.627h4.456zm1.828-15.561H62.092v6.626l-4.555.033-.015-6.66H51.01V57.551h25.25zm-2.4-18.349H52.61v-1.6h.922l-.008-1.6h-2.628V36.802h28.22l-.06 3.871.988.005-.014 10.29h-7.084l-.137 1.6h1.051zm7.198-26.095-7.997.571v2.742l-11.339-.02.028-2.722-10.169-.571V6.593h29.477zm4.89 1.142V7.051h23.764v20.68h1.257v7.197h-3.999v-5.713l-4.88.08-1.484-1.458-2.319.007-1.257 1.371h-9.596zm56.303 175.696-10.844.01-.01-2.866h-2.285l-.114 1.6H113.46v-25.707h25.364v.914h3.199zm-19.88-34.595h-7.083v-19.423h7.083v1.143h14.283v-1.143h7.426v19.423h-7.426v-1.371h-14.283zm21.593-28.905h-4.798v-4.456h4.799z" fill="red" stroke="#b30000" stroke-width="1.25"/><path d="M143.508 136.498h-9.026v6.17h-11.197v-6.17h-3.427v-15.767h6.855v-9.14h10.397v9.14h6.398zm.456-26.735H126.6v-4.913h-6.741V85.656h18.623v2.97h5.484zm-.433-32.219h-3.657l.114 1.942-19.766-.114.073-3.764 1.784-.004.01-2.07-2.053.017.044-4.767 2.277-.14.11-11.777.498-7.658h18.165l2.4 3.656zm22.073-52.053H151.78v-6.17h13.824zm145.92 2.765h-4v-.457h-13.366v2.285h-3.314V23.8h-2.056v-5.713h2.056v-1.713h1.714v-.686h15.538v.8h3.428zm150.355 6.078h-22.85V20.051h22.85zM209.863 46.285h-18.28l.114 1.256-3.558.092.012 5.086-7.912-.029.085 3.747-4.968 1.75-3.243-3.562-2.204 1.408-1.834-1.559-1.768 1.751-1.891-1.669 3.651-4.09 2.1 2.402 1.365-2.22-5.427-6.191-13.987-.153.124-4.68 3.452-4.229 21.964-.694-.014-2.698h38.617l.114 6.741-6.512 3.77zM181.186 85.77h-15.767v-8.797h15.767z" fill="red" stroke="#b30000" stroke-width="1.25"/><path d="M184.271 74.573h-4.114v2.4h1.029v8.797h-15.767v-8.34h-.228v-1.828h-3.314v-5.599h3.428v-2.056h11.082v2.056h.229v1.485h7.655zm118.707 127.985h-30.962v-7.084h.57v-17.709h6.399v17.71h23.993zM201.225 109.74h-10.968V68.61h4.685s.024-2.628 1.142-2.628 1.371 2.627 1.371 2.627h3.77v32.333h3.085l.05 5.61zm-45.449 7.243h2.171v-13.139l2.27.084-.147-10.374 9.987.12-.099-1.094 14.952.068.02 4.113h4.299v6.97h-4.263l.018 3.763-1.646.013-.01 12.675-4.378.002.108 7.31h3.682v9.712h-11.311v1.028h-13.482v-1.028h-3.999v-9.712h1.828zm61.239 16.955h-21.936v-7.312h-6.855v-7.312h6.855v-5.141h21.936zm92.689 51.767v-11.572h.868V146.99h28.335v28.079h-2.996v9.615h2.11v12.678h-27.397v-11.657zm5.372-58.175h-5.56v-2.363h-12.787v-1.807l-2.398-.01-.054-4.71-.655-.007-.09-13.898h5.884l3.841-4.201 1.983.075.02-4.435-2.218.001-.022-3.845 2.257-.048.07-14.928 9.807-.047-.078 11.722 12.926.334.062 10.149-4.144-.037-.075 7.282 9.98.115.128 5.385 3.209.04.035 5.485-4.843-.064-.182 6.476h-9.313v.973h-6.719zm122.815 17.964-1.088.217-.026 1.009 1.44-.03v3.698h-2.175v1.74h-4.35v-.544h-4.46v2.067h-6.199v-7.179h-1.414v-2.936h1.414v-1.74h6.2v2.066h4.785v-1.74h5.873zm28.386 5.329h-12.943v2.066l-3.608-.294-1.72-1.772-.044-2.632 1.783-.849.02-1.42-2.973-.167 1.213-5.264h18.272l.652 3.045-1.885 2.073 1.135 1.302zm5.111-19.67h-12.942v1.414h-5.003l-.043-4.264 1.457.022.02-2.073-1.777-.276.017-5.155 12.776.13.056-.943 4.352.052 1.74 3.806-1.885 2.073 1.134 1.302zm-26.297-4.455-1.088.218-.026 1.008 1.44-.03v3.698h-2.175v1.74h-4.35v-.543h-4.46v2.066h-6.199v-2.009s-1.649.834-1.592-1.364c.064-2.448 1.592-1.667 1.592-1.667v-2.138h-1.414v-2.937h1.414V123h6.2v2.067h4.785v-1.74h5.873zm-26.323 2.211-1.078.209-.025 1.425 1.426-.029v3.557h-2.155v2.129h-5.976v-.978h-2.75v1.987h-6.14v-1.932s-1.632.802-1.576-1.312c.063-2.355 1.577-1.604 1.577-1.604v-2.056h-1.4v-2.825h1.4v-1.674h6.14v1.988h4.285v-1.674h6.272zm-7.958 22.206-1.077.209-.026 1.425 1.426-.029v3.557h-2.154v2.129h-5.977v-.978h-2.749v1.987h-6.14v-1.932l-1.576-.1.114-2.77 1.462-.046v-2.056h-1.4v-2.825h1.4v-1.674h6.14V150h4.285v-1.674h6.272zm-26.406-11.114v-7.018h.53v-.909h1.668v-.53h.227v-1.592l2.729-.076h3v3l-1.82.228v2.229h.91v3h-1.44l-.076 2.122h-3V140zm-1.85 2.424h-3v-.985l-3.335-.076v-7.048h-1.743v-3h9.063v3h-.985l.075 3.063h.91v3h-.985zm-114.677 30.282h-7v4l-8-4v-11.11l8-3.545v3.546h7l1.454 3.663.092 3.475z" fill="red" stroke="#b30000" stroke-width="1.25"/><path d="m262.387 198.445-19.546-.182-.182-3h-3.818v-5.182h-1.273l.091-48.545h4.91v-5l6.483.177.201 28.874 3.378.053.004 3.72-5.057-.001.134 19.436 14.622.148zm-26.728-27.454h-12.363v-2.546h-4.182l.002-1.82 4.18.001v-3.272h12.363v1.818h1.455l.018 4.309-1.473.055zm-14.013 30.249-7.806-7.988 1.587-1.966-3.05-.058.052-1.192 4.07-.03 1.524-1.936-1.578-.76 8.097-6.104 8.165 6.246-.869 1.531 4.63.046.01 1.743-2.825-.044 1.552 2.615-7.85 7.942zm50.391-77.969h-9.2v-2.28h-1l.016-3.049.984-.052v-7.82h6.2v-28.1h.8v-2.8h4v2.8h8v32.2h2.1v3.8h-8.3v-.7h-3.6z" fill="red" stroke="#b30000" stroke-width="1.25"/><path d="M276.999 135.869h-8.282l-.1 2.1-2.798-.024-.01-1.894-12.232-.048v.995l-12.522.047.022-1.09-8.98-.035.01.893-1.809.003-.002-.903-11.182-.044v-1.979l-1.6-.1-.01-2.878 1.61-.022v-6.678h20.463l.02-1.9 7.926.067-.046 1.833h9.1v-.9l2.558.017-.058.883h17.922zm-14.402-22.838-1.729.013.03-1.627-11.201-.087v-11.3h-2.6v-16.1h2.5v-4.8l5.422-.024-.022 4.824h4v3.3h1l-.084 12.82 2.769.06zm-43.78 58.38-7.12-.063-.1 21.662-2.681-.005-.02-2.004-5.003-.017.004-12.974h1.1v-6.6h-24.36l.01 6.527 1.227.01-.01 12.95-8.027 2.613.3-22.1h-8.12v-10.1h14.02v-9.6l-2.031-.025.024-7.888 27.737.307-.001 15.81 3.047-.003.029-1.99-1.922-.025.042-5.068 4.898.05.083 4.951-1.112.065.005 3.974 3.34-.01.008-12.812-2.493.043-.011-5.173 4.984-.017.09 17.378 2.863.033v3l2.035-.016-.035 1.916h-2.8z" fill="red" stroke="#b30000" stroke-width="1.25"/><path d="M213.177 200.051h-28.1l-.047 1.014-7.564 1.248-4.421-.097-.005-6.325.737-1.2 9.1-2.8v-14.84h-1.1v-4.9h22.3v5.1h-1.2v14.44l5.241.007-.013 2.14 3.73.076zm452.644-120.87-6.635-3.841 2.505-4.327 6.635 3.84zm-22.232-.584h-2v-2h2zm-8.333-1.5h-2.334v-2.5h2.334zm30.5-30.666h-6.167v2.5l-7.982-.058-.018-2.443h-17.833V35.764h7.166V23.597l15.595-.033.067 1.701 3.91.1-.055 8.957-5.738.076.053 1.448 11.002-.082zm-52.5-7.634h-11V19.13h11zm-20.267 14.734h-8.5V37.197h8.5zm18.333 11h-13.666v-7.334l15.333-1.5 1-13.5h7.5v13z" fill="red" stroke="#b30000" stroke-width="1.25"/><path d="M341.401 118.602v-26.75h17.75v26.75zm128 37.75v-21.75h26.75v21.75zm36 .5v-12.75h54.75v12.75zm-16.75-33.25v-35.75h7.75v35.75zm18.97 3.119v-37.05h31.115l18.215 25.987v11.062zm77.443-92.776v-14.96h7.49v14.96zm30.925 5.718V18.985h7.49v20.678zm52.235-6.497v-7.684h15.546v7.684zm-229.47 2.339 24.429.121V20.805h12.688v12.742s-1.56 4.008-3.51 5.32c-2.142 1.442-8.819 2.978-8.819 2.978l-.022 3.923-11.022 3.748-21.358.741.16-6.417 7.489-.116zM327.367 55.712V25.584h45.817v30.128zm54.314-2.858V22.726h48.415v30.128zm-70.166 92.775v-6.74h10.214v6.74zm15.852 0v-6.74h13.593v6.74zm-110.446-39.761V65.865h17.49v44.94h-12.73l-.02-4.785zm25.208-31.185v-8.818h51.014v8.818zm-46.777-49.376V.897s16.784-1.139 28.776 1.248c10.99 2.187 40.429 12.524 40.429 12.524l18.416.193.035 20.06 31.965.126-.318 22.515-94.177.04-.053-32.2zm-43.919-6.756.295-10.731 3.602.074.26-6.998h39.06v24.671l-25.87.143.043-7.16zm-34.563 20.53V6.613h27.624v32.468zM81.267 49.735V31.561h24.507l.097 4.41 10.073-.053.022 10.46-9.09-.082-.063 3.44zm38.201-3.638v-6.22h24.247v6.22zM8.762 75.463V59.628h15.931v18.434l18.41.129-.078 6.473-25.553.154-3.898-9.355zM1.486 53.634V36.239h42.178v17.394zm11.694 87.317v-7.52h2.473l1.819-2.598 9.928.19-.053 2.409h16.577v11.157l-20.995-.26zm38.981 58.991v-16.614h19.83v16.614zm394.804-28.582-.146-12.989 2.697-1.606 12.809-1.022 3.282 1.74.369 13.439-8.354.29.02-8.32s-1.35-1.799-2.714.373c-.918 1.46-.131 8.1-.131 8.1zm22.436 1.884V159.81h136.107l8.366 6.065v7.369zm-43.907.811-1.07-12.945 2.577-1.794 12.703-1.93 3.398 1.502 1.323 13.378-8.312.885-.57-8.3s-1.476-1.7-2.682.564c-.811 1.521.445 8.088.445 8.088zm-20.98 5.956-2.82-12.68 2.308-2.127 12.324-3.64 3.57 1.026 3.13 13.074-8.114 2.007-1.695-8.146s-1.692-1.482-2.58.924c-.596 1.618 1.542 7.953 1.542 7.953zM528.411 45.64l.437-4.698 4.241-3.07V27.477l-4.562-2.899-.116-4.293h29.84v7.712l9.355-3.379-.081 15.89-9.274-2.636v7.768zM189.374 57.011v-8.558h22.428v8.559zm195.94 60.278c-10.014 1.556-19.555-7.171-21.512-18.61s4.167-22.677 14.181-24.233l43.12-5.855c10.015-1.556 18.958 5.675 21.083 16.348 2.125 10.674-2.737 23.938-12.751 25.494zm41.778-10.207c9.052-1.378 13.336-12.346 11.318-21.113s-10.179-14.632-19.23-13.253l-38.986 5.24c-9.052 1.379-14.497 10.69-12.624 20.089 1.874 9.398 10.589 16.49 19.64 15.11z" fill="#b30000" stroke="maroon" stroke-width="1.25"/><text transform="translate(17.308 108.951)scale(.08173)" font-size="40" fill="#fff" font-family="Arial" font-weight="bold"><tspan>NE1</tspan></text><text transform="translate(17.308 28.497)scale(.08173)" font-size="40" fill="#fff" font-family="Arial" font-weight="bold"><tspan>NE9</tspan></text><text transform="translate(31.95 67.824)scale(.0641)" font-size="40" fill="#fff" font-family="Arial" font-weight="bold"><tspan>NE3</tspan></text><text transform="translate(40.114 22.347)scale(.04334)" font-size="40" fill="#fff" font-family="Arial" font-weight="bold"><tspan>NE7</tspan></text><text transform="translate(62.923 167.643)scale(.08173)" font-size="40" fill="#fff" font-family="Arial" font-weight="bold"><tspan>NW3</tspan></text><text transform="translate(90.186 193.618)scale(.08173)" font-size="40" fill="#fff" font-family="Arial" font-weight="bold"><tspan>NW1</tspan></text><text transform="translate(78.461 163.348)scale(.08173)" font-size="40" fill="#fff" font-family="Arial" font-weight="bold"><tspan>HOOP</tspan></text><text transform="translate(82.564 113.668)scale(.06286)" font-size="40" fill="#fff" font-family="Arial" font-weight="bold"><tspan>NE23</tspan></text><text transform="translate(82.224 89.851)scale(.08173)" font-size="40" fill="#fff" font-family="Arial" font-weight="bold"><tspan>NE25</tspan></text><text transform="translate(59.721 130.024)scale(.08173)" font-size="40" fill="#fff" font-family="Arial" font-weight="bold"><tspan>NE2</tspan></text><text transform="translate(58.687 113.928)scale(.08173)" font-size="40" fill="#fff" font-family="Arial" font-weight="bold"><tspan>NE4</tspan></text><text transform="translate(59.892 97.594)scale(.08173)" font-size="40" fill="#fff" font-family="Arial" font-weight="bold"><tspan>NE4</tspan></text><text transform="translate(60.521 65.861)scale(.08173)" font-size="40" fill="#fff" font-family="Arial" font-weight="bold"><tspan>NE6</tspan></text><text transform="translate(61.467 45.206)scale(.08173)" font-size="40" fill="#fff" font-family="Arial" font-weight="bold"><tspan>NE8</tspan></text><text transform="translate(62.271 18.539)scale(.08173)" font-size="40" fill="#fff" font-family="Arial" font-weight="bold"><tspan>NE10</tspan></text><text transform="translate(93.521 18.428)scale(.08173)" font-size="40" fill="#fff" font-family="Arial" font-weight="bold"><tspan>NE12</tspan></text><text transform="translate(106.912 70.62)scale(.06044)" font-size="40" fill="#fff" font-family="Arial" font-weight="bold"><tspan>NE28</tspan></text><text transform="translate(106.986 113.714)scale(.06044)" font-size="40" fill="#fff" font-family="Arial" font-weight="bold"><tspan>NE24</tspan></text><text transform="translate(106.972 132.507)scale(.06044)" font-size="40" fill="#fff" font-family="Arial" font-weight="bold"><tspan>NE22</tspan></text><text transform="translate(104.681 158.275)scale(.06044)" font-size="40" fill="#fff" font-family="Arial" font-weight="bold"><tspan>NW5</tspan></text><text transform="translate(124.114 192.377)scale(.08173)" font-size="40" fill="#fff" font-family="Arial" font-weight="bold"><tspan>NW4</tspan></text><text transform="translate(125.942 161.548)scale(.08173)" font-size="40" fill="#fff" font-family="Arial" font-weight="bold"><tspan>NW6</tspan></text><text transform="translate(127.735 129.325)scale(.08173)" font-size="40" fill="#fff" font-family="Arial" font-weight="bold"><tspan>NE20</tspan></text><text transform="translate(127.862 98.652)scale(.08173)" font-size="40" fill="#fff" font-family="Arial" font-weight="bold"><tspan>NE18</tspan></text><text transform="translate(128.846 64.624)scale(.08173)" font-size="40" fill="#fff" font-family="Arial" font-weight="bold"><tspan>NE16</tspan></text><text transform="translate(155.947 23.349)scale(.08173)" font-size="40" fill="#fff" font-family="Arial" font-weight="bold"><tspan>SE3</tspan></text><text transform="translate(181.502 42.258)scale(.08173)" font-size="40" fill="#fff" font-family="Arial" font-weight="bold"><tspan>SE1</tspan></text><text transform="translate(170.329 77.801)scale(.08173)" font-size="40" fill="#fff" font-family="Arial" font-weight="bold"><tspan>SE4</tspan></text><text transform="translate(192.897 85.707)scale(.08173)" font-size="40" fill="#fff" font-family="Arial" font-weight="bold"><tspan>SE6</tspan></text><text transform="translate(170.144 112)scale(.08173)" font-size="40" fill="#fff" font-family="Arial" font-weight="bold" text-anchor="middle"><tspan>SE2</tspan><tspan x="0" dy="46.15">[SA]</tspan></text><text transform="translate(203.432 124.443)scale(.08173)" font-size="40" fill="#fff" font-family="Arial" font-weight="bold"><tspan>SE8</tspan></text><text transform="translate(189.089 158.521)scale(.08173)" font-size="40" fill="#fff" font-family="Arial" font-weight="bold"><tspan>SW1</tspan></text><text transform="translate(221.056 192.189)scale(.08173)" font-size="40" fill="#fff" font-family="Arial" font-weight="bold"><tspan>SW2</tspan></text><text transform="translate(189.736 188.174)scale(.08173)" font-size="40" fill="#fff" font-family="Arial" font-weight="bold"><tspan>SW1</tspan></text><text transform="translate(239.729 164.497)scale(.08173)" font-size="40" fill="#fff" font-family="Arial" font-weight="bold"><tspan>SW3</tspan></text><text transform="translate(257.778 168.323)scale(.08173)" font-size="40" fill="#fff" font-family="Arial" font-weight="bold"><tspan>SW5</tspan></text><text transform="translate(244.507 131.083)scale(.08173)" font-size="40" fill="#fff" font-family="Arial" font-weight="bold"><tspan>SE12</tspan></text><path d="M219.143 123.113v-9.114h7.483v9.114z" fill="red" stroke="#b30000" stroke-width="1.25"/><text transform="translate(219.6 119.499)scale(.08173)" font-size="40" fill="#fff" font-family="Arial" font-weight="bold"><tspan>SE9</tspan></text><text transform="translate(250.033 95.533)scale(.08173)" font-size="40" fill="#fff" font-family="Arial" font-weight="bold"><tspan>SE10</tspan></text><text transform="translate(271.818 95.533)scale(.08173)" font-size="40" fill="#fff" font-family="Arial" font-weight="bold"><tspan>SE14</tspan></text><text transform="translate(309.276 109.139)scale(.08173)" font-size="40" fill="#fff" font-family="Arial" font-weight="bold"><tspan>SE16</tspan></text><text transform="translate(296.938 22.791)scale(.08173)" font-size="40" fill="#fff" font-family="Arial" font-weight="bold"><tspan>SE19</tspan></text><text transform="translate(276.674 200.083)scale(.08173)" font-size="40" fill="#fff" font-family="Arial" font-weight="bold"><tspan>SW7</tspan></text><text transform="translate(320.934 174.683)scale(.08173)" font-size="40" fill="#fff" font-family="Arial" font-weight="bold"><tspan>SW9</tspan></text><text transform="translate(446.774 28.136)scale(.08173)" font-size="40" fill="#fff" font-family="Arial" font-weight="bold"><tspan>SE30</tspan></text><text transform="translate(585.3 46.131)scale(.06651)" font-size="40" fill="#fff" font-family="Arial" font-weight="bold"><tspan>SE41</tspan></text><text transform="translate(603.5 29.906)scale(.08173)" font-size="40" fill="#fff" font-family="Arial" font-weight="bold"><tspan>SE40</tspan></text><text transform="translate(601.243 61.756)scale(.08173)" font-size="40" fill="#fff" font-family="Arial" font-weight="bold"><tspan>SE42</tspan></text><text transform="translate(644.41 37.19)scale(.08173)" font-size="40" fill="#fff" font-family="Arial" font-weight="bold"><tspan>SE50</tspan></text><text transform="translate(397.528 154.657)scale(.08173)" font-size="40" fill="#fff" font-family="Arial" font-weight="bold"><tspan>SW11</tspan></text><text transform="translate(379.454 137.101)scale(.08173)" font-size="40" fill="#fff" font-family="Arial" font-weight="bold"><tspan>SW10</tspan></text><text transform="translate(405.484 132.451)scale(.08173)" font-size="40" fill="#fff" font-family="Arial" font-weight="bold"><tspan>SW12</tspan></text><text transform="translate(424.611 148.666)scale(.08173)" font-size="40" fill="#fff" font-family="Arial" font-weight="bold"><tspan>SW13</tspan></text><text transform="translate(431.721 129.871)scale(.08173)" font-size="40" fill="#fff" font-family="Arial" font-weight="bold"><tspan>SW14</tspan></text><text transform="translate(453.22 146.855)scale(.08173)" font-size="40" fill="#fff" font-family="Arial" font-weight="bold"><tspan>SW15</tspan></text><text transform="translate(458.264 126.786)scale(.08173)" font-size="40" fill="#fff" font-family="Arial" font-weight="bold"><tspan>SW16</tspan></text></svg>