<svg xmlns="http://www.w3.org/2000/svg" viewBox="0 0 250 250" width="250" height="250"><path fill="#e6e6e6" d="M0 0h250v250H0z"/><path fill="#bbb" d="M125.255 16.932a36.2 36.2 0 0 0-7.937.529l-1.739.312a411 411 0 0 0-16.999 3.383 25.57 25.57 0 0 0-12.539 6.926l-1.984 1.984a196 196 0 0 0-11.906 12.945 70.6 70.6 0 0 0-7.484 10.8 23.24 23.24 0 0 0-2.863 11.008v.52a47 47 0 0 0 .926 10.687 67 67 0 0 1 1.38 8.712l.132 1.465c.359 3.902.794 7.805 1.295 11.698l.047.378c.69 2.872.605 5.877-.236 8.693a8.54 8.54 0 0 0-.472 5.102l2.041 9.496a433 433 0 0 0 3.78 16.677 11.93 11.93 0 0 0 3.468 6.491 14.5 14.5 0 0 1 3.676 4.602l.416.822a187 187 0 0 1 3.402 7.087l3.014 6.652a24.92 24.92 0 0 1 2.646 17.065c-1.087 3.78-4.734 8.419-8.154 10.356a2059 2059 0 0 1-35.424 19.701c-14.495 7.843-30.917 20.816-43.739 35.708V250h250v-22.139a59 59 0 0 0-18.029-13.474l-17.424-8.343a433 433 0 0 0-39.553-17.858 15.26 15.26 0 0 1-10.725-10.233 13.75 13.75 0 0 1 .208-9.855 21.5 21.5 0 0 0 2.4-6.236l1.124-5.291a14.77 14.77 0 0 1 5.537-10.734 10.58 10.58 0 0 0 4.913-6.217l.491-1.691a205 205 0 0 0 3.052-11.669l1.54-6.671a15.23 15.23 0 0 0 .822-14.646 6.33 6.33 0 0 1-1.795-5.036l.283-3.118c.378-4.016.926-8.032 1.654-12.01l.803-4.347a30.8 30.8 0 0 0-.076-15.903 60 60 0 0 0-4.998-10.649l-1.191-2.003a639 639 0 0 1-7.701-13.285 24.95 24.95 0 0 0-9.043-9.449 67.7 67.7 0 0 0-11.632-5.386l-1.833-.652a232 232 0 0 0-15.714-4.932 35.7 35.7 0 0 0-7.862-1.228z"/></svg>