<svg xmlns="http://www.w3.org/2000/svg" width="32" height="32" viewBox="-0.12 0 1.28 1.28"><path d="M0.69 0.82c0.051 0.029 0.08 0.076 0.075 0.125 -0.003 0.03 -0.001 0.03 -0.04 0.035 -0.024 0.003 -0.175 0.004 -0.329 0.004 -0.175 0 -0.358 -0.001 -0.371 -0.005 -0.051 -0.014 -0.021 -0.109 0.046 -0.154 0.054 -0.034 0.163 -0.086 0.193 -0.093 0.041 -0.009 0.046 -0.035 0 -0.114 -0.01 -0.019 -0.021 -0.073 -0.023 -0.13C0.24 0.396 0.256 0.334 0.337 0.302a0.16 0.16 0 0 1 0.049 -0.008c0.054 0 0.104 0.03 0.125 0.074 0.029 0.059 0.015 0.213 -0.015 0.269 -0.036 0.064 -0.033 0.084 0.008 0.094 0.025 0.006 0.108 0.045 0.186 0.089m0.274 -0.079c0.04 0.021 0.063 0.06 0.059 0.098 -0.001 0.023 -0.001 0.024 -0.031 0.028 -0.015 0.003 -0.094 0.004 -0.186 0.004 -0.016 -0.039 -0.048 -0.074 -0.09 -0.096a1.68 1.68 0 0 0 -0.15 -0.075c0.029 -0.014 0.054 -0.025 0.065 -0.028 0.031 -0.008 0.035 -0.025 0 -0.088 -0.009 -0.015 -0.019 -0.058 -0.02 -0.103 -0.001 -0.073 0.015 -0.123 0.078 -0.146 0.013 -0.004 0.026 -0.006 0.039 -0.006 0.041 0 0.08 0.023 0.096 0.058 0.021 0.046 0.011 0.166 -0.011 0.211 -0.028 0.05 -0.025 0.065 0.006 0.073 0.02 0.005 0.084 0.036 0.146 0.071z" fill="red"/></svg>