<svg xmlns="http://www.w3.org/2000/svg" viewBox="0 0 32 32" width="32" height="32"><path d="M30.58 4.19a1 1 0 0 0 -0.9 -0.14l-8.7 2.9 -9.61 -2.88 -0.08 -0.03a0.7 0.7 0 0 0 -0.14 -0.03 1.1 1.1 0 0 0 -0.47 0.04l-9 3A1.01 1.01 0 0 0 1 8v19a0.98 0.98 0 0 0 0.42 0.81A0.94 0.94 0 0 0 2 28a1.2 1.2 0 0 0 0.32 -0.05l8.7 -2.9 9.69 2.91c0.03 0.01 0.05 0.01 0.08 0.02A2 2 0 0 0 21 28a1.2 1.2 0 0 0 0.32 -0.05l9 -3A1.01 1.01 0 0 0 31 24V5a0.98 0.98 0 0 0 -0.42 -0.81M10 23.28l-7 2.33V8.72l7 -2.33zm19 0 -7 2.33v-2.7a5.6 5.6 0 0 1 -1 0.09 6 6 0 0 1 0 -12 5.5 5.5 0 0 1 1 0.09V8.72l7 -2.33z" style="fill:red"/><path d="M17 17a4.004 4.004 0 0 0 4 4 3.96 3.96 0 0 0 2.02 -0.567l1.273 1.274a1 1 0 0 0 1.414 -1.414l-1.274 -1.274A3.96 3.96 0 0 0 25 17a4 4 0 0 0 -8 0m6 0a2 2 0 1 1 -2 -2 2 2 0 0 1 2 2" style="fill:red"/></svg>