<svg xmlns="http://www.w3.org/2000/svg" width="100" height="100" viewBox="0 0 100 100"><path d="M69.872 13.545a64 64 0 0 1 1.417 1.299l.379.34c2.293 2.15 4.084 4.868 5.48 7.668l.188.374c2.757 5.617 3.913 12.306 2.156 18.376l-.117.415c-1.83 6.313-5.186 12.292-8.477 17.944l-.589 1.018a260 260 0 0 1-5.301 8.762q-.737 1.172-1.469 2.348a709 709 0 0 1-3.906 6.188 919 919 0 0 0-2.992 4.731l-.349.554a359 359 0 0 0-4.655 7.588q-.718 1.204-1.441 2.405c-.847-.282-1.025-.921-1.416-1.672a72 72 0 0 0-2.551-4.346l-.379-.601-.757-1.198a332 332 0 0 1-1.672-2.693 407 407 0 0 0-2.38-3.809c-3.339-5.273-6.644-10.565-9.791-15.955l-.273-.467c-13.23-22.608-13.23-22.608-10.31-34.25 2.321-8.069 7.512-14.693 14.857-18.793 11.077-5.97 24.842-4.367 34.349 3.774M40.511 25.879c-1.954 2.024-3.416 4.497-3.792 7.324l-.079.575c-.401 3.742.709 7.146 3.014 10.086 2.461 2.893 5.641 4.573 9.406 4.915 3.813.204 7.185-1.121 10.084-3.535 2.585-2.43 4.097-5.774 4.333-9.306.07-3.775-1.239-7.139-3.815-9.902-1.63-1.66-3.554-2.818-5.755-3.575l-.397-.138c-4.67-1.378-9.557.322-12.998 3.556" fill="red"/></svg>