<svg xmlns="http://www.w3.org/2000/svg" height="50" width="50" viewBox="0 0 23.382 23.382"><path d="M21.503 12.969a1.875 1.875 0 0 0-1.875 1.875v4.788H3.753v-4.788a1.875 1.875 0 0 0-3.75 0v6.663a1.875 1.875 0 0 0 1.875 1.875h19.625a1.875 1.875 0 0 0 1.875-1.875v-6.663a1.875 1.875 0 0 0-1.875-1.875" fill="red"/><path d="m7.723 8.495 2.093-2.093v6.986a1.875 1.875 0 0 0 3.75 0V6.402l2.093 2.093c.366.366.846.549 1.326.549s.96-.183 1.326-.549a1.875 1.875 0 0 0 0-2.651L13.017.549a1.875 1.875 0 0 0-2.651 0L5.072 5.843a1.875 1.875 0 0 0 2.651 2.651" fill="red"/></svg>