<?xml version="1.0" encoding="UTF-8"?>
<svg version="1.1" xmlns="http://www.w3.org/2000/svg" width="512" height="512">
<path d="M0 0 C0.82716522 0.00182281 1.65433044 0.00364563 2.50656128 0.00552368 C15.97780756 0.05528811 29.12172842 0.72251656 42.375 3.3125 C43.23722168 3.47878906 44.09944336 3.64507812 44.98779297 3.81640625 C104.85956833 15.80630378 155.81406288 52.08712717 189.5 102.4921875 C191.53853775 105.72261224 193.48847098 108.99192723 195.375 112.3125 C195.7654248 112.99763672 196.15584961 113.68277344 196.55810547 114.38867188 C213.20749297 143.95579969 224.26498679 178.85354432 224.61328125 212.9921875 C224.6230751 213.79424118 224.63286896 214.59629486 224.64295959 215.4226532 C224.82679802 234.41063447 224.32982654 252.65829119 220.375 271.3125 C220.17132813 272.28848145 219.96765625 273.26446289 219.7578125 274.27001953 C213.77409739 301.89391422 202.03793664 329.4051362 185.375 352.3125 C184.68019531 353.27929688 183.98539062 354.24609375 183.26953125 355.2421875 C170.09096143 373.2023623 155.07334995 389.82649467 137.07519531 403.06103516 C135.37863496 404.30982441 133.70104025 405.58137103 132.0234375 406.85546875 C122.98933001 413.61571188 113.38075992 419.12239121 103.375 424.3125 C102.25182373 424.89862061 102.25182373 424.89862061 101.10595703 425.49658203 C80.96559539 435.87376728 59.60962393 442.23703251 37.375 446.3125 C35.46460938 446.66441406 35.46460938 446.66441406 33.515625 447.0234375 C-13.24021666 454.32242636 -63.07197384 445.84665587 -104.625 423.3125 C-105.27098145 422.97138184 -105.91696289 422.63026367 -106.58251953 422.27880859 C-135.51720566 406.98893138 -161.37083851 384.79952911 -180.625 358.3125 C-181.25277344 357.46816406 -181.88054687 356.62382812 -182.52734375 355.75390625 C-217.86556874 306.95350031 -230.94928808 245.19778358 -221.48095703 186.00512695 C-213.45859786 140.21687285 -191.651569 99.65522937 -159.625 66.3125 C-158.7690625 65.4153125 -157.913125 64.518125 -157.03125 63.59375 C-141.90275516 48.08225529 -123.63678514 35.60178629 -104.625 25.3125 C-103.57965088 24.74668213 -103.57965088 24.74668213 -102.51318359 24.16943359 C-82.08013316 13.3453125 -58.54122263 5.49256785 -35.625 2.3125 C-34.40458008 2.13952393 -33.18416016 1.96654785 -31.92675781 1.78833008 C-21.26669637 0.3595219 -10.74735743 -0.04954075 0 0 Z M-40.625 53.3125 C-41.47513672 53.52148926 -42.32527344 53.73047852 -43.20117188 53.94580078 C-72.43225458 61.37601697 -98.92487598 76.42996307 -120.625 97.3125 C-121.37644287 98.025271 -121.37644287 98.025271 -122.14306641 98.75244141 C-155.34425116 130.35885295 -173.9853046 173.97137972 -175.6015625 219.68505859 C-176.30957942 256.88755468 -165.81937675 295.14002989 -143.625 325.3125 C-142.87863281 326.34246094 -142.13226563 327.37242187 -141.36328125 328.43359375 C-133.06748415 339.66459224 -123.62822041 350.65786613 -112.625 359.3125 C-112.08568848 359.74240234 -111.54637695 360.17230469 -110.99072266 360.61523438 C-101.38452312 368.22702327 -91.53645189 374.73263179 -80.625 380.3125 C-79.94324707 380.66296387 -79.26149414 381.01342773 -78.55908203 381.37451172 C-37.84814571 402.03962309 10.21200763 406.18761672 53.75219727 392.04101562 C77.78877266 383.8275597 99.73999726 371.65602118 118.375 354.3125 C119.32221924 353.43102295 119.32221924 353.43102295 120.28857422 352.53173828 C151.35612984 323.2665064 173.5056502 281.81379511 175.55200195 238.57226562 C176.38299957 186.3154275 162.95465774 140.91414887 126.375 102.3125 C125.53324219 101.41789062 124.69148438 100.52328125 123.82421875 99.6015625 C95.59693183 70.43472768 54.31874237 51.05343034 13.61889648 49.13549805 C-4.81717951 48.84378431 -22.6088208 48.81534739 -40.625 53.3125 Z " fill="#FF1E1E" transform="translate(255.625,31.6875)"/>
<path d="M0 0 C5.68921316 3.6957487 9.76564411 8.5206242 11.59446716 15.15727234 C12.15542284 19.08949206 12.13064853 22.95411429 12.11352539 26.92114258 C12.11367142 27.80944763 12.11381744 28.69775269 12.1139679 29.61297607 C12.11327293 32.54018624 12.1055 35.46733225 12.09765625 38.39453125 C12.09579059 40.42762721 12.09436739 42.46072362 12.09336853 44.49382019 C12.08955499 49.83838141 12.07973462 55.18291536 12.06866455 60.52746582 C12.05842543 65.98380158 12.05386555 71.44014177 12.04882812 76.89648438 C12.03811132 87.59766822 12.02104885 98.29883184 12 109 C13.12006943 108.99333817 14.24013885 108.98667633 15.39414978 108.97981262 C25.97222328 108.91888244 36.55026097 108.87397024 47.12847042 108.84456348 C52.56627174 108.82893673 58.00393088 108.80775308 63.44165039 108.77368164 C68.69362846 108.74098158 73.94547014 108.72312451 79.19754219 108.71536827 C81.19691679 108.70984386 83.19628429 108.69905613 85.19560051 108.68280983 C88.00548048 108.66089403 90.81480358 108.65803897 93.62475586 108.65942383 C94.44331558 108.648638 95.26187531 108.63785217 96.10523987 108.6267395 C104.32921327 108.67032947 111.40256783 110.62655994 117.49609375 116.32421875 C122.59509476 122.00596273 124.43702957 128.17706672 124.265625 135.76171875 C123.29542533 143.93707771 119.52782471 149.13502039 113.4140625 154.40625 C107.02311556 158.62551594 100.48660025 158.30201836 93.09472656 158.30639648 C91.30334259 158.31888176 91.30334259 158.31888176 89.47576904 158.33161926 C86.21106245 158.35154645 82.94650378 158.36235281 79.68174458 158.36744571 C77.63766955 158.37109903 75.59361868 158.37734417 73.54955292 158.3844471 C66.40574577 158.40891634 59.26201096 158.42198764 52.11816406 158.42553711 C45.47995313 158.42916864 38.84220558 158.45904251 32.20413613 158.50094169 C26.48839131 158.53574246 20.77279932 158.55108724 15.05694938 158.55178314 C11.65050647 158.55257276 8.24453598 158.56116388 4.83820343 158.58978081 C1.03267971 158.61673535 -2.77157694 158.61185565 -6.57714844 158.59936523 C-8.24831726 158.62161667 -8.24831726 158.62161667 -9.95324707 158.64431763 C-17.25445747 158.5763242 -22.94765437 157.23234501 -29 153 C-34.0468151 147.6811202 -37.23956948 142.21609493 -37.26742554 134.75177002 C-37.27595551 133.71454803 -37.28448547 132.67732605 -37.29327393 131.6086731 C-37.29236755 130.4812973 -37.29146118 129.35392151 -37.29052734 128.19238281 C-37.29724457 126.99666656 -37.30396179 125.80095032 -37.31088257 124.56900024 C-37.32661057 121.29602942 -37.33323682 118.02321102 -37.33451414 114.75020695 C-37.33593831 112.70195753 -37.34021301 110.65373449 -37.34550858 108.60549164 C-37.36400184 101.44986795 -37.37218038 94.29431866 -37.37060547 87.13867188 C-37.36940536 80.48519077 -37.39048353 73.83203474 -37.4220928 67.17863584 C-37.44831513 61.45358556 -37.45897023 55.72864103 -37.45769465 50.00353122 C-37.45718661 46.58991735 -37.46278095 43.1765923 -37.48405075 39.76303864 C-37.50369785 35.95015195 -37.49787618 32.13809605 -37.48583984 28.32519531 C-37.50269836 26.64627701 -37.50269836 26.64627701 -37.51989746 24.93344116 C-37.4574875 17.13309469 -36.11562561 10.86180485 -31.140625 4.6953125 C-21.54082895 -3.27807182 -11.58645686 -5.54316102 0 0 Z " fill="#FF1E1E" transform="translate(268,123)"/>
</svg>
