<svg xmlns="http://www.w3.org/2000/svg" viewBox="0 0 32 32" xml:space="preserve" width="32" height="32"><path style="fill:red" d="M9.024 29.953c-4.185-2.511-6.982-6.709-7.673-11.52l1.465-.21a14.58 14.58 0 0 0 6.969 10.461zm22.861-11.52-1.464-.21a14.6 14.6 0 0 1-6.833 10.378l.775 1.261a16.07 16.07 0 0 0 7.522-11.428M17.306 1.48c2.315 0 4.529.524 6.58 1.559l.666-1.321C22.293.578 19.855 0 17.306 0s-4.986.578-7.247 1.718l.666 1.321a14.5 14.5 0 0 1 6.581-1.559M31.95 16.05v-1.709c0-.926-3.133-2.279-5.697-2.279s-5.697 1.353-5.697 2.279v1.709zM26.254 4.087c-1.473 0-2.848 1.194-2.848 2.667v2.072c0 1.473 1.375 2.667 2.848 2.667s2.848-1.194 2.848-2.667V6.754c0-1.473-1.376-2.667-2.848-2.667M21.697 32v-1.709c0-.926-3.133-2.279-5.697-2.279s-5.697 1.353-5.697 2.279V32zM16 20.038c-1.473 0-2.848 1.194-2.848 2.667v2.072c0 1.473 1.375 2.667 2.848 2.667s2.848-1.194 2.848-2.667v-2.072c0-1.473-1.375-2.667-2.848-2.667m-4.557-3.988v-1.709c0-.926-3.133-2.279-5.697-2.279S.05 13.415.05 14.341v1.709zM5.746 4.087c-1.473 0-2.848 1.194-2.848 2.667v2.072c0 1.473 1.375 2.667 2.848 2.667s2.848-1.194 2.848-2.667V6.754c0-1.473-1.375-2.667-2.848-2.667"/></svg>