<svg xmlns="http://www.w3.org/2000/svg" width="110" height="110" viewBox="0 0 110 110"><g fill="red"><path d="m53.18 93.531-2.604-15.813 4.728-4.445 5.656 2.95 10.617-11.341 1.679-2.728 16.753-1.676 7.287 10.303-6.027 12.618 10.446 5.757 8.283 15.301-16.036 5.969-5.154-20.499-.699.085-.121.25-.24-.206-3.858.469-5.754 1.493-.284.017-12.928 14.653-14.782 2.067 3.874-15.275zm13.057-4.466 16.417-3.623L83.87 75.07l-14.2.953zM.687 86.247l.454-14.575 9.344-14.428 22.032-.649 11.822 14.072 1.279 7.885-10.033 1.83L23.74 63.849 11.564 77.247l.738 12.478 13.67 6.571 2.456-4.604 15.911-3.111-3.713 18.671-25.062 1.813L0 103.346zM33.1 8.357a8.357 8.357 0 1 1 16.714 0 8.357 8.357 0 0 1-16.714 0m25.32 1.858a7.688 7.688 0 1 1 15.377 0 7.688 7.688 0 0 1-15.377 0"/><path d="M26.195 14.921c11.953 5.225 26.94 5.237 34.864 20.987 6.02 11.966.505 11.109-2.682 11.471-2.174.247-2.355-4.726-4.332-8.74-1.96-3.98-4.242-4.285-4.242-4.285l.073 13.702.136 21.927-14.092-17.92s-6.536-27.052-7.095-27.223C21.89 22.717 14.627 18.457 9.587 8.378c-.315-.598-.442-5.324 1.932-5.932 2.372-.609 3.78-.161 6.187 3.851 1.518 2.529 6.96 7.956 8.489 8.624"/><path d="M85.986 8.365c2.406-4.013 3.815-4.46 6.188-3.852s2.245 5.335 1.93 5.933c-5.039 10.08-11.361 14.151-18.296 16.274-.56.171.024 20.234.024 20.234L59.709 69.882l-.327-18.625s6.932-1.138 7.531-4.135-1.05-8.158-3.051-13.296c-1.999-5.138-8.096-9.131-7.103-9.489 5.542-1.994 14.183-4.483 20.737-7.348 1.53-.668 6.973-6.095 8.489-8.624"/></g></svg>
