<svg xmlns="http://www.w3.org/2000/svg" width="109" height="110" viewBox="0 0 109 110"><defs><linearGradient x1="267.747" y1="192.434" x2="267.747" y2="242.126" gradientUnits="userSpaceOnUse" id="a"><stop offset="0" stop-color="#50f"/><stop offset="1" stop-color="#da00ff"/></linearGradient><linearGradient x1="210.778" y1="188.571" x2="210.778" y2="240.773" gradientUnits="userSpaceOnUse" id="b"><stop offset="0" stop-color="#50f"/><stop offset="1" stop-color="#da00ff"/></linearGradient><linearGradient x1="229.331" y1="132.265" x2="229.331" y2="148.893" gradientUnits="userSpaceOnUse" id="c"><stop offset="0" stop-color="#da00ff"/><stop offset="1" stop-color="#a300ff"/></linearGradient><linearGradient x1="253.856" y1="134.778" x2="253.856" y2="150.076" gradientUnits="userSpaceOnUse" id="d"><stop offset="0" stop-color="#da00ff"/><stop offset="1" stop-color="#a300ff"/></linearGradient><linearGradient x1="224.482" y1="134.478" x2="224.482" y2="201.891" gradientUnits="userSpaceOnUse" id="e"><stop offset="0" stop-color="#da00ff"/><stop offset=".501" stop-color="#50f"/></linearGradient><linearGradient x1="263.162" y1="136.534" x2="263.162" y2="201.789" gradientUnits="userSpaceOnUse" id="f"><stop offset="0" stop-color="#da00ff"/><stop offset=".501" stop-color="#50f"/></linearGradient><linearGradient x1="217.883" y1="220.394" x2="217.883" y2="240.773" gradientUnits="userSpaceOnUse" id="g"><stop offset="0" stop-color="#fff" stop-opacity=".706"/><stop offset="1" stop-color="#fff" stop-opacity="0"/></linearGradient><linearGradient x1="188.086" y1="229.422" x2="213.922" y2="229.422" gradientUnits="userSpaceOnUse" id="h"><stop offset="0" stop-color="#fff" stop-opacity="0"/><stop offset="1" stop-color="#fff" stop-opacity=".706"/></linearGradient><linearGradient x1="198.517" y1="200.404" x2="223.487" y2="200.404" gradientUnits="userSpaceOnUse" id="i"><stop offset="0" stop-color="#fff" stop-opacity="0"/><stop offset="1" stop-color="#fff" stop-opacity=".706"/></linearGradient><linearGradient x1="210.778" y1="188.571" x2="210.778" y2="240.773" gradientUnits="userSpaceOnUse" id="j"><stop offset="0" stop-color="#fff" stop-opacity="0"/><stop offset="1" stop-color="#fff" stop-opacity=".706"/></linearGradient><linearGradient x1="189.221" y1="199.167" x2="211.703" y2="199.167" gradientUnits="userSpaceOnUse" id="k"><stop offset="0" stop-color="#fff" stop-opacity=".624"/><stop offset="1" stop-color="#fff" stop-opacity="0"/></linearGradient><linearGradient x1="210.778" y1="188.571" x2="210.778" y2="240.773" gradientUnits="userSpaceOnUse" id="l"><stop offset="0" stop-color="#fff" stop-opacity="0"/><stop offset="1" stop-color="#fff" stop-opacity=".698"/></linearGradient><linearGradient x1="237.993" y1="232.351" x2="265.56" y2="232.351" gradientUnits="userSpaceOnUse" id="m"><stop offset="0" stop-color="#fff" stop-opacity="0"/><stop offset="1" stop-color="#fff" stop-opacity=".706"/></linearGradient><linearGradient x1="250.033" y1="189.168" x2="250.033" y2="238.859" gradientUnits="userSpaceOnUse" id="n"><stop offset="0" stop-color="#fff" stop-opacity=".706"/><stop offset="1" stop-color="#fff" stop-opacity="0"/></linearGradient><linearGradient x1="253.983" y1="224.539" x2="289.281" y2="224.539" gradientUnits="userSpaceOnUse" id="o"><stop offset="0" stop-color="#fff" stop-opacity="0"/><stop offset="1" stop-color="#fff" stop-opacity=".498"/></linearGradient><linearGradient x1="258.645" y1="205.163" x2="258.645" y2="225.317" gradientUnits="userSpaceOnUse" id="p"><stop offset="0" stop-color="#fff" stop-opacity=".706"/><stop offset="1" stop-color="#fff" stop-opacity="0"/></linearGradient><linearGradient x1="266.809" y1="192.434" x2="266.809" y2="220.787" gradientUnits="userSpaceOnUse" id="q"><stop offset="0" stop-color="#fff" stop-opacity="0"/><stop offset="1" stop-color="#fff" stop-opacity=".698"/></linearGradient><linearGradient x1="215.662" y1="170.392" x2="237.708" y2="170.392" gradientUnits="userSpaceOnUse" id="r"><stop offset="0" stop-color="#fff" stop-opacity="0"/><stop offset="1" stop-color="#fff" stop-opacity=".478"/></linearGradient><linearGradient x1="244.447" y1="168.396" x2="263.53" y2="168.396" gradientUnits="userSpaceOnUse" id="s"><stop offset="0" stop-color="#fff" stop-opacity="0"/><stop offset="1" stop-color="#fff" stop-opacity=".592"/></linearGradient><linearGradient x1="230.833" y1="180.076" x2="230.833" y2="201.891" gradientUnits="userSpaceOnUse" id="t"><stop offset="0" stop-color="#fff" stop-opacity="0"/><stop offset="1" stop-color="#fff" stop-opacity=".576"/></linearGradient><linearGradient x1="255.347" y1="177.775" x2="255.347" y2="201.789" gradientUnits="userSpaceOnUse" id="u"><stop offset="0" stop-color="#fff" stop-opacity="0"/><stop offset="1" stop-color="#fff" stop-opacity=".576"/></linearGradient><linearGradient x1="212.297" y1="163.242" x2="251.509" y2="163.242" gradientUnits="userSpaceOnUse" id="v"><stop offset="0" stop-color="#fff" stop-opacity=".631"/><stop offset="1" stop-color="#fff" stop-opacity="0"/></linearGradient><linearGradient x1="271.745" y1="136.534" x2="271.745" y2="158.851" gradientUnits="userSpaceOnUse" id="w"><stop offset="0" stop-color="#fff" stop-opacity=".631"/><stop offset="1" stop-color="#fff" stop-opacity="0"/></linearGradient></defs><g stroke-miterlimit="10"><path d="m240.994 225.317-2.591-15.732 4.704-4.422 5.627 2.935 10.563-11.283 1.67-2.714 16.668-1.667 7.25 10.25-5.997 12.553 10.393 5.728 8.241 15.223-15.954 5.938-5.128-20.394-.695.085-.12.249-.239-.205-3.838.467-5.725 1.485-.283.017-12.862 14.578-14.706 2.056 3.854-15.197zm12.99-4.443 16.333-3.604 1.21-10.319-14.127.948z" fill="url(#a)" transform="translate(-188.086 -132.265)"/><path d="m188.769 218.071.452-14.5 9.296-14.354 21.919-.646 11.761 14 1.272 7.845-9.982 1.821-11.784-16.448-12.114 13.329.734 12.414 13.6 6.537 2.443-4.58 15.83-3.095-3.694 18.575-24.934 1.804-15.482-5.691z" fill="url(#b)" transform="translate(-188.086 -132.265)"/><path d="M221.017 140.579a8.314 8.314 0 1 1 16.628 0 8.314 8.314 0 0 1-16.628 0" fill="url(#c)" transform="translate(-188.086 -132.265)"/><path d="M246.207 142.427a7.649 7.649 0 1 1 15.298 0 7.649 7.649 0 0 1-15.298 0" fill="url(#d)" transform="translate(-188.086 -132.265)"/><path d="M214.147 147.11c11.892 5.198 26.802 5.21 34.686 20.88 5.989 11.905.502 11.052-2.668 11.412-2.163.246-2.343-4.702-4.31-8.695-1.95-3.96-4.22-4.263-4.22-4.263l.073 13.632.135 21.815-14.02-17.828s-6.503-26.914-7.059-27.084c-6.9-2.112-14.125-6.35-19.14-16.378-.313-.595-.44-5.297 1.922-5.902 2.36-.606 3.761-.16 6.156 3.831 1.509 2.516 6.923 7.915 8.445 8.58" fill="url(#e)" transform="translate(-188.086 -132.265)"/><path d="M273.632 140.587c2.394-3.992 3.795-4.437 6.156-3.832s2.234 5.308 1.92 5.903c-5.013 10.028-11.302 14.078-18.202 16.19-.557.17.024 20.13.024 20.13l-16.04 22.811-.325-18.53s6.897-1.132 7.492-4.114-1.045-8.116-3.035-13.228c-1.989-5.112-8.055-9.084-7.067-9.44 5.514-1.984 14.11-4.46 20.631-7.31 1.523-.665 6.937-6.064 8.446-8.58" fill="url(#f)" transform="translate(-188.086 -132.265)"/><path d="m213.922 228.07 2.444-4.58 15.83-3.096-3.694 18.575-24.933 1.804z" fill="url(#g)" transform="translate(-188.086 -132.265)"/><path d="m188.769 218.071 11.554 3.461 13.6 6.537-10.355 12.704-15.482-5.691z" fill="url(#h)" transform="translate(-188.086 -132.265)"/><path d="m198.517 189.217 21.919-.646 3.051 23.666-11.784-16.448z" fill="url(#i)" transform="translate(-188.086 -132.265)"/><path d="m220.436 188.571 11.761 14 1.272 7.845-9.982 1.821z" fill="url(#j)" transform="translate(-188.086 -132.265)"/><path d="m189.221 203.571 9.296-14.354 13.186 6.572-12.114 13.329z" fill="url(#k)" transform="translate(-188.086 -132.265)"/><path d="m188.769 218.071.452-14.5 10.368 5.547.734 12.414z" fill="url(#l)" transform="translate(-188.086 -132.265)"/><path d="m265.56 224.034-12.86 14.578-14.706 2.055 3.854-15.196z" fill="url(#m)" transform="translate(-188.086 -132.265)"/><path d="m289.281 221.16 8.241 15.223-15.954 5.938z" fill="url(#n)" transform="translate(-188.086 -132.265)"/><path d="m278.888 215.237 10.393 5.728-7.713 21.16-5.128-20.393-.695.085-.12.249-.239-.205-3.838.467z" fill="url(#o)" transform="translate(-188.086 -132.265)"/><path d="m240.994 225.317-2.591-15.732 4.704-4.422 5.627 2.935 5.27 12.54 24.884-5.4-7.34 7.09-5.725 1.485-.283.017-23.714 1.437z" fill="url(#p)" transform="translate(-188.086 -132.265)"/><path d="m248.734 208.098 10.563-11.283 1.67-2.714 16.668-1.667 7.25 10.25-6.152 12.517-8.082 1.829.692-10.112-13.6.842-3.7 13.027z" fill="url(#q)" transform="translate(-188.086 -132.265)"/><path d="m237.635 166.444.073 13.632-13.885 3.987s-6.503-26.914-7.059-27.084c-6.9-2.112 20.871 9.465 20.871 9.465" fill="url(#r)" transform="translate(-188.086 -132.265)"/><path d="M263.53 178.978s-9.468 3.15-8.873.167c.594-2.982-1.045-8.116-3.035-13.228-1.989-5.112-8.055-9.084-7.067-9.44 5.514-1.984 18.975 22.5 18.975 22.5" fill="url(#s)" transform="translate(-188.086 -132.265)"/><path d="m237.708 180.076.135 21.815-14.02-17.828z" fill="url(#t)" transform="translate(-188.086 -132.265)"/><path d="m263.53 178.978-16.04 22.811-.325-18.53s6.897-1.132 7.492-4.114 8.873-.167 8.873-.167" fill="url(#u)" transform="translate(-188.086 -132.265)"/><path d="M214.147 147.11c11.892 5.198 26.802 5.21 34.686 20.88 5.989 11.905.502 11.052-2.668 11.412-2.163.246-2.343-4.702-4.31-8.695-1.95-3.96-4.22-4.263-4.22-4.263s-12.902-5.462-18.528-7.995c-.403-.182-1.463-.836-2.654-1.402-3.295-1.565-8.265-3.802-8.265-3.802s4.437-6.8 5.959-6.135" fill="url(#v)" transform="translate(-188.086 -132.265)"/><path d="M273.632 140.587c2.394-3.992 3.795-4.437 6.156-3.832s2.234 5.308 1.92 5.903c-5.013 10.028-11.302 14.078-18.202 16.19-.557.17-4.841-6.83 1.68-9.681 1.523-.665 6.937-6.064 8.446-8.58" fill="url(#w)" transform="translate(-188.086 -132.265)"/></g></svg>
