<?xml version="1.0" encoding="UTF-8"?>
<svg version="1.1" xmlns="http://www.w3.org/2000/svg" width="512" height="512">
<path d="M0 0 C0.6581369 0.00021149 1.3162738 0.00042297 1.99435425 0.00064087 C31.83099358 0.09607252 58.18264896 11.82254631 79.6875 32.25 C93.02194497 46.32366793 102.30400035 62.67295618 107.4375 81.375 C107.75589844 82.45910156 108.07429688 83.54320312 108.40234375 84.66015625 C115.39524777 112.72844841 109.89993904 142.73232793 95.54003906 167.44726562 C92.29075759 172.82687071 88.53689036 177.62748468 84.4375 182.375 C83.55191406 183.47714844 83.55191406 183.47714844 82.6484375 184.6015625 C78.74965061 189.29669735 74.44395908 193.20902529 69.6875 197 C69.1517334 197.43111084 68.6159668 197.86222168 68.06396484 198.30639648 C62.54683854 202.57665547 56.49817174 205.9426171 50.4375 209.375 C51.12448975 209.58479492 51.81147949 209.79458984 52.51928711 210.01074219 C83.79558817 219.68526813 112.03655153 233.2279544 136.4375 255.375 C137.48240483 256.30023421 138.52798777 257.22470313 139.57421875 258.1484375 C176.43748047 290.97897213 200.80696629 340.05638812 204.4375 389.375 C204.63365355 393.31358401 204.71201357 397.24450832 204.75 401.1875 C204.77900391 402.21037109 204.80800781 403.23324219 204.83789062 404.28710938 C204.84626953 405.27130859 204.85464844 406.25550781 204.86328125 407.26953125 C204.87786377 408.15487549 204.89244629 409.04021973 204.9074707 409.95239258 C204.26349601 413.27195666 203.0828515 414.29506416 200.4375 416.375 C197.38049698 416.87639666 197.38049698 416.87639666 193.70953369 416.87836456 C193.03076723 416.88417833 192.35200076 416.88999209 191.65266562 416.89598203 C189.36737022 416.91063539 187.08313996 416.89667306 184.79785156 416.88293457 C183.14732436 416.88754141 181.49680126 416.89389286 179.84628677 416.90184355 C175.30230604 416.91858998 170.75865998 416.91026649 166.21467781 416.89789867 C161.31753358 416.88887216 156.4204481 416.90280596 151.52331543 416.91381836 C141.92650516 416.93163387 132.3298198 416.92775011 122.73300457 416.9161678 C114.93564005 416.90714566 107.13831062 416.90590418 99.34094238 416.91026306 C98.23249474 416.91087599 97.12404709 416.91148893 95.98201013 416.91212043 C93.73043918 416.91339929 91.47886824 416.91469614 89.22729731 416.9160108 C68.09886388 416.92742548 46.97049979 416.91428896 25.84207773 416.89280933 C7.70067333 416.87493756 -10.4406287 416.87804141 -28.58203125 416.89648438 C-49.63325309 416.91787541 -70.68441411 416.92632676 -91.73564529 416.91403532 C-93.97907765 416.91276108 -96.22251001 416.9115036 -98.46594238 416.91026306 C-99.56984369 416.90964596 -100.673745 416.90902886 -101.81109786 416.90839306 C-109.60190395 416.90493485 -117.39267155 416.91077862 -125.18347168 416.92018127 C-134.67385158 416.93138302 -144.1640991 416.92839971 -153.65446377 416.9070583 C-158.49949877 416.89652327 -163.3443128 416.89246769 -168.18934631 416.90565491 C-172.62069729 416.91753403 -177.05162152 416.91109076 -181.48293352 416.8897447 C-183.08986884 416.88525953 -184.69683988 416.88758756 -186.30375242 416.89724785 C-188.48119866 416.90933851 -190.65716588 416.89701413 -192.83453369 416.87836456 C-194.04595158 416.87771515 -195.25736946 416.87706574 -196.50549698 416.87639666 C-200.16093712 416.27684688 -201.33690276 415.27888868 -203.5625 412.375 C-204.08007812 410.22216797 -204.08007812 410.22216797 -204.09375 407.8671875 C-204.10204834 406.97652588 -204.11034668 406.08586426 -204.11889648 405.16821289 C-204.10028564 404.20520264 -204.0816748 403.24219238 -204.0625 402.25 C-204.04968994 401.23736084 -204.03687988 400.22472168 -204.02368164 399.18139648 C-202.81738423 352.36488673 -183.55290561 307.12813451 -152.5625 272.375 C-152.10343262 271.85421875 -151.64436523 271.3334375 -151.17138672 270.796875 C-123.68329249 239.67900441 -88.79048323 221.46919975 -49.5625 209.375 C-50.47128906 208.87613281 -51.38007813 208.37726563 -52.31640625 207.86328125 C-79.32899509 192.60633886 -98.1338063 168.83343742 -106.8828125 139.05859375 C-111.66906773 120.87322299 -111.86954484 99.44473568 -106.5625 81.375 C-106.23378906 80.17746094 -105.90507812 78.97992188 -105.56640625 77.74609375 C-100.74265985 61.73926746 -92.54020743 47.90498506 -81.5625 35.375 C-80.84578125 34.55644531 -80.1290625 33.73789063 -79.390625 32.89453125 C-58.81472311 11.04230462 -29.65269653 -0.03957462 0 0 Z M-68.19042969 46.51489258 C-85.81727095 65.11487026 -93.23365832 88.49323001 -92.96704102 113.74682617 C-92.24559988 139.77098553 -80.38592732 162.39492769 -61.8515625 180.32421875 C-41.41713404 198.63151387 -15.34016081 204.68691588 11.4375 203.375 C35.06715681 201.24416186 56.867792 187.7524269 72.4375 170.375 C89.540528 149.26913566 95.00665963 125.0806432 93.4375 98.375 C91.04262326 77.22999077 80.98766364 59.61929988 66.4375 44.375 C65.91027344 43.77300781 65.38304687 43.17101562 64.83984375 42.55078125 C50.15314013 26.43672536 27.69544014 18.63179571 6.5 16.5 C-22.12032968 15.18864469 -48.07585649 26.24021313 -68.19042969 46.51489258 Z M-41.5625 225.375 C-42.44325195 225.57867187 -43.32400391 225.78234375 -44.23144531 225.9921875 C-77.23917862 233.87027633 -106.275479 250.93836489 -130.5625 274.375 C-131.46226562 275.21160156 -132.36203125 276.04820312 -133.2890625 276.91015625 C-161.61106587 303.96705572 -179.42333477 342.55430308 -185.375 380.9375 C-185.49907227 381.73397949 -185.62314453 382.53045898 -185.75097656 383.35107422 C-186.57477474 389.1747684 -186.5625 394.37133918 -186.5625 400.375 C-63.1425 400.375 60.2775 400.375 187.4375 400.375 C187.4375 361.81784707 172.35446317 323.35662168 148.4375 293.375 C147.7775 292.51132812 147.1175 291.64765625 146.4375 290.7578125 C120.52457926 257.67957656 83.26011455 234.81513626 42.4375 225.375 C41.55674805 225.16617188 40.67599609 224.95734375 39.76855469 224.7421875 C13.55564288 218.7808488 -15.44783133 219.18315759 -41.5625 225.375 Z " fill="#FF1E1E" transform="translate(255.5625,47.625)"/>
</svg>
